<svg xmlns="http://www.w3.org/2000/svg" fill="none" stroke="#000" stroke-width="2" viewBox="0 0 347 347">
  <path fill="#b18846" stroke-linecap="round" stroke-linejoin="round" stroke-miterlimit="3" d="M87.7 44.7 268.8 94l-19 69.8-181.1-49.5z"/>
  <path d="M5 5h337v337H5z"/>
  <circle cx="298" cy="40" r="16"/>
  <path fill="#ffc56a" stroke-linecap="round" stroke-linejoin="round" stroke-miterlimit="3" d="M19.3 111.3h304V328h-304z"/>
  <g stroke-linecap="round" stroke-linejoin="round" stroke-miterlimit="3" stroke-width="1.2">
    <path fill="#f96200" d="M73.4 148.4h25v25h-25z"/>
    <path fill="#005ff9" d="M98.4 148.4h25v25h-25zm-25 25h25v25h-25z"/>
    <path fill="#f96200" d="M98.4 173.4h25v25h-25z"/>
    <path fill="#f96200" d="M123.3 173.4h25v25h-25zm25.4 0h24.9v25h-25z"/>
    <path fill="#005ff9" d="M173.6 173.4h25v25h-25z"/>
    <path fill="#005ff9" d="M198.5 173.4h25v25h-25z"/>
    <path fill="#f96200" d="M223.5 173.4h25v25h-25z"/>
    <path fill="#f96200" d="M248.4 198.3h25v25h-25z"/>
    <path fill="#005ff9" d="M223.5 198.3h25v25h-25zm-25 0h25v25h-25z"/>
    <path fill="#f96200" d="M173.6 198.3h25v25h-25zm-24.9 0h24.9v25h-25z"/>
    <path fill="#005ff9" d="M98.4 198.3h25v25h-25z"/>
    <path fill="#f96200" d="M98.4 223.7h25v24.9h-25z"/>
    <path fill="#005ff9" d="M123.3 223.7h25v24.9h-25zm25.4 0h24.9v24.9h-25zm49.8 0h25v24.9h-25z"/>
    <path fill="#f96200" d="M223.5 223.7h25v24.9h-25z"/>
    <path fill="#f96200" d="M248.4 223.7h25v24.9h-25z"/>
    <path fill="#005ff9" d="M223.5 248.6h25v25h-25zm-49.9 0h25v25h-25z"/>
    <path fill="#f96200" d="M148.7 248.6h24.9v25h-25z"/>
    <path fill="#005ff9" d="M98.4 248.6h25v25h-25z"/>
    <path fill="#f96200" d="M73.4 248.6h25v25h-25z"/>
    <path fill="#f96200" d="M73.4 273.5h25v25h-25z"/>
    <path fill="#005ff9" d="M98.4 273.5h25v25h-25z"/>
    <path fill="#f96200" d="M123.3 273.5h25v25h-25z"/>
    <path fill="#005ff9" d="M148.7 273.5h24.9v25h-25z"/>
    <path fill="#f96200" d="M173.6 273.5h25v25h-25z"/>
    <path fill="#f96200" d="M198.5 273.5h25v25h-25z"/>
    <path fill="#005ff9" d="M223.5 273.5h25v25h-25z"/>
  </g>
  <g fill="#000" stroke-width="1" aria-label="Fantasia 2024 District (33 voters)">
    <path d="M172.5 118.8v-.4q0-.2-.2-.3l-.2-.1h-1.3v-.5l.9-.1.8-.1.8-.1h3.7l1-.1h.4l.4.1.1.4v1l-.1.7-.1.8h-.5v-1.5l-.2-.4-.4-.2-.7-.1h-3v2.2l-.1 2.9h3.2l.9-.1v.7l-.3.1-.5.1h-1.8l-1.5-.2v1.4l-.1 1.5v1.4l-.1 1.5-1.3.2v-3l.1-2.6v-2.6l.1-2.6zm10.9 5.2q0-.5-.2-.8l-.3-.5-.5-.3-.6-.1h-.7l-.4.3q-.2.1-.2.3l-.1.4v.5l.4.5v.1l-.7.2-.3-.1q-.2 0-.3-.2l-.2-.2v-.4l.1-.6.4-.5.6-.4.7-.3.7-.2h1.7l.6.5.4.7v2.7l-.1.9v1q0 .7.3 1.1.3.4.7.4.4 0 1-.3l.1.2-.8.6q-.4.2-.9.2l-.6-.2q-.3 0-.5-.3l-.4-.6v-1.4l-.6 1-.7.7q-.3.4-.8.6l-.8.2-.7-.1q-.3-.1-.5-.4l-.4-.5v-.7l.1-.8.5-.7.7-.6 1-.3 1-.3h1.2v-1.4zm-3.3 3.6v.4q0 .2.2.3 0 .2.2.3h.9l.5-.4.5-.4.4-.6.3-.7.1-.8h-.8l-.7.2-.6.2-.6.4-.3.5-.1.6zm7.7-4.3v-.4l-.2-.2-.1-.2h-.7l-.7.2v-.4l.7-.2.6-.2.6-.2h.3q.3 0 .5.2t.2.6v.8l-.1.7v.8l-.2.9v1q.4-1.4.9-2.4.4-1 1-1.5.4-.6.9-.9.5-.3.9-.3l.6.1.5.4.3.6.1 1v1.7l-.1.8v.7l-.1.5v.7l.1.4q.1.2.3.2h.9l.6-.2v.3l-.4.3-.6.3-.7.2h-1l-.3-.5v-3.4l.1-1v-.6q0-.6-.2-.9-.2-.3-.6-.3-.3 0-.7.3l-.7.7-.6 1-.6 1.4-.4 1.6q-.2.7-.2 1.5l-1.1.2h-.1v-1.1l.1-1.3V126l.1-1.1v-1.6zm11.2-5.5q-.3 1-.4 2.1l-.3 2.2h2.4v.3l-.1.3h-2.4v1l-.1 1v2.7q0 .5.2.8l.4.5.7.1h.6l.9-.4.1.3-.6.4-.7.4-.6.2h-.6l-.7-.1q-.3-.1-.5-.5l-.3-.9q-.2-.6-.2-1.4v-1l.1-1v-1.1l.2-1h-1.4v-.2l.4-.2.4-.2h.6l.3-2.2.3-1.7v-.3l.2-.1.2-.1h.6l.3.1zm7 6.2-.1-.8-.4-.5-.5-.3-.6-.1h-.6l-.5.3-.2.3v.9l.3.5v.1l-.6.2-.4-.1-.2-.2q-.2 0-.2-.2v-1l.5-.5.6-.4.6-.3.7-.2h1.7q.4.2.6.5.3.3.4.7l.1 1v1.7l-.2.9v1q0 .7.3 1.1.3.4.8.4.4 0 .9-.3l.1.2q-.3.4-.7.6l-1 .2-.6-.2q-.3 0-.5-.3l-.3-.6-.1-.8v-.6l-.6 1-.6.7-.8.6q-.4.2-.9.2l-.6-.1q-.4-.1-.6-.4l-.3-.5-.1-.7.1-.8.5-.7.8-.6.9-.3 1-.3h1.2v-.7l.1-.7zm-3.3 3.6v.4l.2.3.2.3h.9l.5-.4.5-.4.4-.6.3-.7.2-.8h-.8l-.8.2-.6.2-.5.4-.4.5v.6zm7.5-.1q0 .4.2.7l.4.5.6.3h1.2l.5-.3.3-.3q.2-.2.2-.5t-.2-.5l-.3-.4-.6-.3-.6-.3-.5-.3-.6-.3-.5-.4-.4-.4-.3-.5v-1.3l.4-.6.5-.4.6-.3.7-.2h1.5l.7.3.4.4.2.6v.3l-.2.3-.2.2h-.9v-.4l.1-.2-.1-.5-.3-.2-.4-.2h-1.1l-.6.3-.3.4v1l.5.4.6.4.7.3.8.4.7.5.5.6.2.8q0 .6-.2 1l-.7.7-1 .5-1 .1h-.6l-.6-.1-.5-.3q-.3 0-.5-.2l-.3-.4v-.8q0-.2.2-.2l.4-.2h.3zm7.2-8-.3-.1-.3-.2-.1-.3v-.8q0-.2.2-.3l.3-.2h.6q.2 0 .3.2l.1.3v.7q0 .2-.2.3 0 .2-.2.3h-.4zm.5 2.4-.2 1.2v1.2l-.2 1v2l.1.6v.5l.2.2.2.2h.8l.6-.3.1.3-.4.3-.7.3-.6.2h-1l-.2-.4-.1-.5-.1-.8v-4.4l.1-1.3v-.2l.3-.2h1.1zm6.6 2.1q0-.5-.2-.8l-.3-.5-.5-.3-.6-.1h-.7l-.4.3-.2.3v.9q0 .3.3.5v.1l-.7.2-.3-.1q-.2 0-.3-.2l-.2-.2v-.4l.1-.6.4-.5.6-.4.7-.3.7-.2h1.7l.6.5.4.7v3.6l-.1 1q0 .7.3 1.1.3.4.7.4.4 0 1-.3l.1.2-.8.6q-.4.2-.9.2l-.6-.2q-.3 0-.5-.3l-.4-.6v-1.4l-.6 1-.7.7q-.3.4-.7.6l-.9.2-.7-.1q-.3-.1-.5-.4l-.3-.5q-.2-.3-.2-.7 0-.5.2-.8l.5-.7.7-.6 1-.3 1-.3h1.2v-1.4zm-3.3 3.6v.4q0 .2.2.3 0 .2.2.3h.9l.5-.4.5-.4.4-.6.3-.7.1-.8h-.7l-.8.2-.6.2-.6.4-.3.5-.1.6zm10.3 1.4 1.6-1.2 1.2-1 .8-1q.4-.3.6-.7l.3-.7v-.6l-.1-.7-.4-.6-.6-.3h-1.3l-.4.3-.3.3v1l.4.6-.6.2h-.4l-.3-.3-.2-.3-.1-.4.2-.6q.1-.3.4-.5l.6-.4.7-.3.7-.2.8-.1.9.1.7.4q.3.2.5.6l.2.8v.7l-.4.7-.5.8-1 1-1.2 1-1.6 1.1 1-.2 1-.2 1-.1h1.3l.4.1.3.2v.4l-.1.6-1.5-.1h-4.6zm11.4-7.5q.7 0 1.3.3.7.2 1.1.7.5.5.8 1.2.2.7.2 1.6l-.1 1.3-.4 1-.6 1-.8.6q-.4.3-1 .4l-1 .1q-.7 0-1.3-.2-.7-.3-1.1-.7-.5-.5-.8-1.2-.2-.7-.2-1.7v-1.2l.5-1.1q.2-.5.6-.9l.8-.6q.4-.3 1-.4.4-.2 1-.2zm0 7.5.8-.2q.4-.2.7-.7.3-.4.4-1 .2-.5.2-1.2v-1l-.3-.8-.4-.8-.5-.6-.6-.3-.8-.2q-.4 0-.8.3-.4.2-.7.6l-.5 1-.1 1.3.1 1.4q.2.6.6 1.1.3.5.8.8.4.3 1 .3zm4.6 0 1.6-1.2 1.2-1 .8-1q.4-.3.6-.7l.3-.7v-.6l-.1-.7q-.2-.4-.5-.6l-.5-.3h-1.3l-.5.3-.2.3v1l.4.6-.6.2h-.4l-.3-.3-.2-.3-.1-.4.1-.6.5-.5.6-.4.7-.3.7-.2.8-.1.9.1.7.4q.3.2.5.6l.2.8-.1.7q0 .3-.3.7l-.6.8-.8 1-1.3 1-1.6 1.1 1-.2 1-.2 1-.1h1.3l.4.1.2.2.1.4-.1.6-1.5-.1h-4.6zm6.9.2q1-1.3 1.6-2.4l1.2-1.9.7-1.4.5-1.2.3-.9.1-.8h.5l.3.2q.2.1.2.3v.3l-.1.8-.5 1-.7 1.2-1 1.4-1 1.4-1 1.5 2-.2 1.9-.2v-2.2l.1-1.1v-.3l.3-.2.2-.2h.5l.3.1v1l-.1.9-.1.9v1h1.3l.4.2q.2 0 .3.2v.3l-.1.6h-1l-1-.1v1.6l-.1 1v1l-1.2.2V131l.1-.9v-.8h-2.7l-2.2.2zm15.8-11.5v3.6l-.1 1.7v1.7l-.2 1.7v2.4l.9.2h.9q.9 0 1.6-.2l1.2-.7q.6-.4 1-1l.6-1.1.3-1.5.1-1.5q0-1.2-.2-2.2-.3-1-.9-1.7-.6-.7-1.5-1-1-.5-2.3-.5h-.7l-.7.1zm-3.2-.2 1.1-.2 1.2-.2h1.3l1.2-.1h1.6l1.5.4 1.3.7q.6.4 1 1 .4.7.6 1.5.2.9.2 2 0 1-.2 1.9-.1.9-.5 1.7-.4.8-1 1.4-.5.7-1.2 1.1-.7.5-1.6.7-.8.3-1.8.3h-1l-1.1-.3-1 .1h-.2l.1-.9v-1.3l.2-1.7v-7.4q-.1-.2-.3-.2H267zm14 2-.3-.1-.2-.2-.2-.3v-.8l.3-.3.2-.2h.7l.2.2.2.3v.7q0 .2-.2.3l-.3.3h-.3zm.5 2.4-.1 1.2-.1 1.2-.1 1v2.6l.1.5.2.2.2.2h.8l.6-.3v.3l-.4.3-.6.3-.6.2h-1.1l-.1-.4-.2-.5v-6.5l.1-.2.2-.2h1.1zm2.9 5.6q0 .4.2.7l.5.5.6.3h1.2l.5-.3.3-.3.1-.5-.1-.5-.4-.4-.5-.3-.6-.3-.6-.3-.5-.3-.6-.4-.4-.4-.2-.5-.1-.6.1-.7.3-.6.6-.4.6-.3.7-.2h1.5l.6.3.5.4.2.6v.3l-.2.3-.3.2h-.9l.1-.4v-.7l-.4-.2-.4-.2h-1.1l-.5.3-.3.4-.1.5.1.5.4.4.6.4.7.3.8.4.8.5.5.6.2.8q0 .6-.3 1-.2.4-.6.7l-1 .5-1 .1h-.7l-.5-.1-.6-.3-.4-.2-.3-.4-.1-.5v-.3q.1-.2.3-.2l.3-.2h.4zm8.4-9.7-.4 2.1-.3 2.2h2.4v.3l-.1.3H292v2l-.1 1v1.7q0 .5.2.8l.5.5.6.1h.7l.8-.4.1.3-.6.4-.7.4-.6.2h-.6l-.7-.1q-.3-.1-.5-.5l-.3-.9-.1-1.4v-3.1l.2-1h-1.4v-.2l.4-.2.4-.2h.6l.3-2.2.3-1.7v-.3l.3-.1.2-.1h.5l.3.1zm2.9 11.8v-2.4l.1-1.3v-1.4l.1-1.2v-1.1l.1-.3.2-.1.2-.1h.6l.3.1-.1 1-.2 1.2v1.3l-.2 1.3.7-2q.3-.9.7-1.5.4-.7.9-1 .5-.5 1-.5l.4.1q.2 0 .3.2.2 0 .2.3l.1.3v.5l-.4.4-.5-.3-.4-.1h-.5l-.4.4-.6.7-.4 1-.4 1.2-.3 1.2-.2 1-.1 1zm7.3-10.1-.3-.1-.2-.2-.2-.3v-.8l.3-.3.2-.2h.7l.2.2.2.3v.7q0 .2-.2.3l-.3.3h-.3zm.5 2.4-.1 1.2-.1 1.2-.1 1v2.6l.1.5.2.2.2.2h.8l.6-.3v.3l-.4.3-.6.3-.6.2h-1.1l-.1-.4-.2-.5v-6.5l.1-.2.2-.2h1.1zm6.6 2.1.1-.7v-.4l-.2-.3-.4-.2-.5-.1-.8.1-.6.4-.4.6-.3.8-.2.8v.8l.2 1.2.5 1q.3.4.7.6l.8.2 1-.2q.5-.3 1-.9l.2.2.1.1q-.5.9-1.3 1.3-.7.4-1.6.4l-.8-.1-.8-.4-.5-.5q-.3-.3-.4-.7l-.3-.8v-2l.4-1 .6-1q.3-.5.8-.8.4-.4 1-.5.4-.2 1-.2h.9l.6.4.4.4q.2.3.2.7v.4l-.2.2-.3.2h-1zm5-6.2-.4 2.1-.2 2.2h2.4v.3q0 .2-.2.3h-2.3v1l-.1 1v2.7q0 .5.2.8.1.3.4.5l.7.1h.6l.8-.4q.2.1.2.3-.3.3-.7.4l-.6.4q-.4 0-.7.2h-.6l-.6-.1q-.3-.1-.5-.5l-.4-.9v-4.5l.1-1h-1.4l.1-.2.3-.2.5-.2h.6l.3-2.2.2-1.7.1-.3.2-.1.2-.1h.7l.2.1zm-61.2 42.6-.3.2-.4.1-.5-.1q-.3-.1-.5-.4-.5-.4-.8-1l-.7-1.1-.5-1.3-.4-1.5-.2-1.4v-1.5l.1-2.7q.3-1.4.8-2.6.4-1.3 1.1-2.5.7-1.2 1.7-2.2l.4.3-1.4 2q-.6 1.1-1 2.3-.4 1.1-.6 2.4-.2 1.2-.2 2.5l.1 1.5.2 1.6.5 1.5.6 1.4.9 1.3 1 1.1z"/>
    <path d="m255.9 154.5 1-.4 1-.7q.5-.4.7-.9.3-.5.3-1.1 0-.4-.2-.7-.1-.4-.4-.6l-.6-.3-.7-.1h-.7l-.4.3-.3.3v1l.4.5v.1l-.6.2-.4-.1-.3-.2-.2-.3v-.4l.1-.6.4-.5.6-.4.7-.3.8-.2h1.7l.7.4.5.6q.2.4.2.9l-.1.8-.3.7-.6.6q-.2.3-.6.5l-.7.5-.6.3h.2l1.2.2 1 .5.7.9.2 1-.1 1.2-.5.9-.8.7q-.4.4-1 .6l-1 .3-1 .2h-.6l-.5-.2-.6-.2-.4-.2-.3-.4q-.2-.2-.2-.5l.1-.3q0-.2.2-.3l.2-.2h.4l.4.7.6.4.6.3.6.1 1-.2q.4-.1.8-.5l.5-.8.2-1q0-.7-.2-1.2t-.6-.8l-.9-.5-1-.2h-.6zm7.2 0 1.2-.4 1-.7.6-.9q.2-.5.2-1.1l-.1-.7-.4-.6-.6-.3-.7-.1h-.7l-.5.3-.2.3v1l.4.5v.1l-.6.2-.4-.1q-.2 0-.3-.2l-.2-.3v-1l.5-.5.6-.4.7-.3.8-.2h1.6l.8.4.5.6q.2.4.2.9l-.1.8-.4.7-.5.6-.6.5-.7.5-.7.3h.3l1.2.2 1 .5q.4.4.6.9.3.5.3 1 0 .7-.2 1.2l-.5.9-.7.7-1 .6-1 .3-1 .2h-.6l-.6-.2-.5-.2q-.3 0-.5-.2l-.3-.4-.1-.5v-.3l.2-.3q.2 0 .3-.2h.4q.1.4.4.7.2.3.5.4l.6.3.7.1 1-.2q.4-.1.7-.5.4-.3.6-.8l.2-1q0-.7-.2-1.2l-.6-.8-1-.5q-.4-.2-1-.2h-.5zm11.4 2.6-.2-1-.2-1.2-.2-1.1-.3-1.1-.2-1-.2-.7-.2-.5q0-.2-.2-.3l-.2-.2h-.6l-.5.1-.1-.4.6-.2.6-.2h.5l.3-.1h.3l.2.2.2.4.2.5.2.5.2.8.2 1 .2 1 .2 1.1.1 1.1.6-.8.5-.8.5-1 .3-.8.3-.8v-1.8l-.7-.7.1-.1h.4q.7 0 1 .3.4.4.4 1l-.2 1-.5 1.2-.7 1.3-.8 1.3-.8 1.2-.7.9zm5-3.2.1-1.1q.1-.6.4-1.1l.5-1q.3-.5.8-.8.4-.4 1-.6.4-.2 1-.2.7 0 1.3.3.5.3.8.8l.6 1 .2 1.3-.1 1.1-.4 1.1-.5 1-.8.8-1 .5q-.4.2-1 .2-.7 0-1.3-.3-.5-.2-.9-.7l-.5-1.1-.2-1.2zm1.3-.6v.8l.2.7.3.7.4.5.6.3.6.2q.4 0 .7-.2l.5-.4q.3-.3.4-.7l.2-.7.1-.8v-1.4l-.1-.7-.3-.7-.5-.5-.5-.4-.6-.1q-.4 0-.7.2l-.6.4-.3.7q-.2.3-.2.7l-.2.8v.6zm9.4-8q-.3 1-.4 2.1l-.3 2.2h2.5v.3l-.1.3h-2.4v1l-.1 1v2.7q0 .5.2.8l.4.5.7.1h.6l.9-.4.1.3-.6.4-.7.4-.6.2h-.6l-.7-.1q-.3-.1-.5-.5l-.3-.9q-.2-.6-.2-1.4v-1l.1-1v-1.1l.2-1H287v-.2l.4-.2.4-.2h.6l.3-2.2.3-1.7v-.3l.2-.1.2-.1h.6l.3.1zm7.8 10h.2l.1.2-.6.8-.7.5-.8.3-.8.1q-.6 0-1.1-.2-.6-.3-1-.8-.4-.4-.6-1-.2-.6-.2-1.3l.1-1.2.4-1q.2-.6.6-1 .3-.5.8-.8.4-.4 1-.6l1-.1h.8l.6.4.5.5.1.6q0 .6-.3 1l-1 .7-1.5.5-1.8.2v.1l.1 1.3.5 1 .7.6 1 .2 1-.2 1-.8zm-1-4.3v-.5l-.3-.4-.3-.2-.5-.1-.6.1-.5.3-.4.5-.3.6-.2.7-.1.6 1.4-.1 1-.4q.4-.2.6-.5l.2-.6zm3.2 6v-2.3l.1-1.2v-2.1l.1-.6v-.6l-.3-.2h-.9l-.4.2v-.4l1.4-.5.8-.1q.3 0 .5.2l.1.6v1.4l-.1.8-.1 1-.1 1 .6-2 .8-1.6q.4-.7.9-1 .4-.5 1-.5l.4.1q.2 0 .3.2l.2.3v.8l-.3.4-.5-.3-.4-.1h-.5l-.4.4-.6.7-.5 1-.4 1.2-.3 1.2q0 .6-.2 1v1zm6.5-2q0 .4.2.7l.4.5.6.3h1.2l.5-.3.3-.3q.2-.2.2-.5t-.2-.5l-.3-.4-.6-.3-.6-.3-.6-.3-.5-.3-.5-.4-.4-.4-.3-.5v-1.3l.4-.6.5-.4.6-.3.7-.2h1.5l.7.3.4.4.2.6v.3l-.2.3-.2.2h-.9v-.4l.1-.2-.1-.5-.3-.2-.4-.2h-1.2l-.5.3-.3.4v1l.5.4.6.4.7.3.8.4.7.5.5.6.2.8q0 .6-.2 1l-.7.7-1 .5-1 .1h-.6l-.6-.1-.5-.3q-.3 0-.5-.2l-.3-.4v-.8q0-.2.2-.2l.4-.2h.3zm4.9-12.3q.1-.2.3-.2l.3-.1.6.1.5.4.8 1 .6 1.1.5 1.3q.3.7.4 1.5l.3 1.4v1.5q0 1.4-.2 2.7-.2 1.4-.7 2.7l-1.2 2.4q-.7 1.2-1.6 2.2l-.4-.3 1.4-2 1-2.3.5-2.4q.2-1.2.2-2.5v-1.5l-.3-1.6-.4-1.5-.6-1.4q-.4-.7-1-1.3-.4-.6-1-1z"/>
  </g>
  <path stroke-width="1" d="m109 49.6-18.8 62"/>
  <path fill="#f96200" stroke-linecap="round" stroke-linejoin="round" stroke-miterlimit="3" stroke-width="1" d="m104 65-12-4.2-11.7 38.5 11.7 3.6Z"/>
</svg>
